<?xml version="1.0" encoding="iso-8859-1"?>
<!-- Generator: Adobe Illustrator 16.0.0, SVG Export Plug-In . SVG Version: 6.00 Build 0)  -->
<!DOCTYPE svg PUBLIC "-//W3C//DTD SVG 1.1//EN" "http://www.w3.org/Graphics/SVG/1.1/DTD/svg11.dtd">
<svg version="1.1" id="Capa_1" xmlns="http://www.w3.org/2000/svg" xmlns:xlink="http://www.w3.org/1999/xlink" x="0px" y="0px"
	 width="412.595px" height="412.595px" viewBox="0 0 412.595 412.595" style="enable-background:new 0 0 412.595 412.595; fill:currentColor;" xml:space="preserve">
<g>
	<path d="M361.298,114.193c0-3.777-0.672-7.396-1.9-10.746L333.06,21.621C328.912,8.736,316.921,0,303.382,0H109.198
		C95.659,0,83.669,8.736,79.52,21.621l-26.723,83.02c-1.1,3.418-1.58,6.951-1.477,10.449c-0.01,0.295-0.023,0.588-0.023,0.885
		v265.442c0,17.221,13.959,31.178,31.176,31.178h247.631c17.22,0,31.177-13.957,31.177-31.178V115.974
		c0-0.182-0.011-0.357-0.015-0.537C361.284,115.023,361.298,114.609,361.298,114.193z M131.913,44.536h148.752l6.651,20.664
		H125.263L131.913,44.536z M295.366,345.609H117.214V167.46h178.152V345.609z"/>
	<path d="M173.226,301.376c0.393,0.114,0.918,0.233,1.445,0.348l0.434,0.093c8.094,2.26,15.42,4.217,21.271,4.963v15.033
		c0,5.016,4.07,9.077,9.08,9.077h2.188c5.006,0,9.075-4.062,9.075-9.077v-15.365c15.093-3.172,29.422-15.683,29.422-33.308
		c0-21.752-19.327-28.514-34.856-33.952c-14.607-5.113-20.717-8.236-20.717-14.359c0-10.918,11.285-13.801,17.254-13.801
		c11.455,0,13.803,4.641,13.803,11.619v0.545c0,5.016,4.068,9.08,9.078,9.08h2.338c5.012,0,9.078-4.062,9.08-9.07l0.014-15.754
		c0-2.549-1.066-4.978-2.938-6.701c-5.697-5.223-13.08-8.127-22.478-8.813v-10.332c0-5.016-4.069-9.084-9.075-9.084h-2.188
		c-5.01,0-9.08,4.068-9.08,9.084v11.051c-13.703,3.781-26.691,16.283-26.691,32.9c0,19.824,17.475,25.808,32.896,31.08
		c15.987,5.474,22.676,9.033,22.676,16.867c0,11.325-11.764,14.352-18.711,14.352c-7.021,0-15.709-2.008-18.057-5.307
		c-1.029-1.476-1.721-4.332-2.059-8.507c-0.385-4.715-4.32-8.346-9.049-8.346h-1.846c-2.426,0-4.742,0.963-6.451,2.685
		c-1.703,1.719-2.65,4.049-2.629,6.467l0.141,17.867C166.624,296.751,169.329,300.281,173.226,301.376z"/>
</g>
</svg>
